<svg xmlns="http://www.w3.org/2000/svg" width="37.185" height="39.999" viewBox="0 0 37.185 39.999" fill="none">
  <path d="M 3.907 6.141 C 8.184 0.867 14.96 -0.495 21.431 0.148 L 21.461 0.15 C 26.981 0.68 32.437 3.774 34.883 8.835 C 37.164 13.621 37.621 19.607 36.817 24.831 C 35.671 32.197 31.518 37.594 24.077 39.365 C 19.527 40.396 14.117 40.246 9.831 38.357 C 3.293 35.472 0.244 29.048 0.057 22.126 C -0.203 16.614 0.321 10.551 3.907 6.141 Z M 28.626 3.564 C 23.577 0.645 14.062 0.713 8.885 3.369 C 3.855 5.912 2.057 11.891 1.808 17.196 C 1.551 23.052 1.812 30.239 6.156 34.603 C 9.141 37.566 13.602 38.389 17.658 38.526 C 20.734 38.589 23.978 38.349 26.893 37.211 C 33.867 34.504 35.427 26.412 35.317 19.703 L 35.317 19.673 C 35.256 13.821 34.134 6.744 28.626 3.564 Z M 19.551 12.191 L 24.939 25.383 L 28.907 15.449 C 29.459 14.058 29.276 12.848 28.461 12.402 L 28.461 12.244 L 32.351 12.244 L 32.351 12.402 C 31.772 12.743 31.194 13.506 30.564 15.056 L 24.099 31.165 L 23.968 31.165 L 18.448 17.841 L 12.824 31.165 L 12.694 31.165 L 6.019 14.715 C 5.466 13.374 5.021 12.717 4.416 12.402 L 4.416 12.244 L 10.091 12.244 L 10.091 12.402 C 9.329 12.848 9.198 13.769 9.67 15.003 L 13.744 25.358 L 19.421 12.191 L 19.551 12.191 Z" fill="currentColor" fill-rule="nonzero"/>
</svg>
