<svg xmlns="http://www.w3.org/2000/svg" width="90.107" height="18.970" viewBox="0 0 90.107 18.970" fill="none">
  <path d="M 19.47 18.97 L 19.621 18.97 L 26.036 2.883 C 26.64 1.366 27.244 0.607 27.847 0.228 L 27.847 0.076 L 23.998 0.076 L 23.998 0.228 C 24.829 0.683 24.98 1.897 24.451 3.263 L 20.527 13.203 L 15.093 0 L 14.942 0 L 9.282 13.127 L 5.207 2.808 C 4.754 1.593 4.83 0.683 5.66 0.228 L 5.66 0.076 L 0 0.076 L 0 0.228 C 0.604 0.531 1.057 1.214 1.585 2.504 L 8.301 18.97 L 8.452 18.97 L 14.037 5.615 L 19.47 18.97 Z M 61.128 9.713 L 61.128 4.553 L 66.562 4.553 C 69.052 4.553 69.958 4.932 70.863 6.222 L 71.014 6.146 L 70.712 3.263 L 57.128 3.263 L 57.128 3.415 C 57.959 3.946 58.185 4.629 58.185 5.691 L 58.185 16.011 C 58.185 17.073 57.959 17.832 57.128 18.287 L 57.128 18.439 L 71.392 18.439 L 71.92 15.328 L 71.769 15.252 C 70.863 16.466 69.731 17.149 67.316 17.149 L 61.128 17.149 L 61.128 11.003 L 65.279 11.003 C 67.09 11.003 67.92 11.306 68.448 12.065 L 68.599 12.065 L 68.599 8.726 L 68.448 8.726 C 67.996 9.485 67.09 9.789 65.279 9.789 L 61.128 9.789 L 61.128 9.713 Z M 79.316 18.287 L 79.316 18.439 L 84.523 18.439 L 84.523 18.287 C 83.693 17.756 83.391 16.997 83.391 15.707 L 83.391 12.141 L 87.994 5.539 C 88.825 4.325 89.504 3.566 90.107 3.339 L 90.107 3.187 L 86.032 3.187 L 86.032 3.339 C 86.787 3.794 86.862 4.78 86.108 5.919 L 82.712 10.775 L 79.089 5.312 C 78.486 4.477 78.637 3.718 79.316 3.339 L 79.316 3.187 L 73.58 3.187 L 73.58 3.339 C 74.259 3.642 74.712 4.022 75.391 5.084 L 80.448 12.368 L 80.448 15.707 C 80.523 16.997 80.221 17.756 79.316 18.287 Z M 54.11 18.439 L 54.864 15.252 L 54.714 15.176 C 53.808 16.542 52.449 17.149 50.487 17.149 L 44.601 17.149 L 44.601 5.919 C 44.601 4.629 44.903 3.87 45.808 3.339 L 45.808 3.187 L 40.601 3.187 L 40.601 3.339 C 41.431 3.87 41.658 4.553 41.658 5.615 L 41.658 15.935 C 41.658 16.997 41.431 17.756 40.601 18.211 L 40.601 18.363 L 54.11 18.363 L 54.11 18.439 Z M 31.092 15.859 C 31.092 17.073 30.866 17.832 29.96 18.287 L 29.96 18.439 L 35.168 18.439 L 35.168 18.287 C 34.337 17.832 34.036 17.073 34.036 15.859 L 34.036 5.767 C 34.036 4.629 34.262 3.87 35.168 3.339 L 35.168 3.187 L 30.036 3.187 L 30.036 3.339 C 30.866 3.87 31.168 4.629 31.168 5.767 L 31.168 15.859 L 31.092 15.859 Z" fill="currentColor" fill-rule="nonzero"/>
</svg>
